Coordinates
version=1
nRows=14
nColumns=40
inDegrees=yes

Units are S.I. units (second, meters, Newtons, ...)
If the header above contains a line with 'inDegrees', this indicates whether rotational values are in degrees (yes) or radians (no).

endheader
time	pelvis_tilt	pelvis_list	pelvis_rotation	pelvis_tx	pelvis_ty	pelvis_tz	hip_flexion_r	hip_adduction_r	hip_rotation_r	knee_angle_r	knee_angle_r_beta	ankle_angle_r	subtalar_angle_r	mtp_angle_r	hip_flexion_l	hip_adduction_l	hip_rotation_l	knee_angle_l	knee_angle_l_beta	ankle_angle_l	subtalar_angle_l	mtp_angle_l	lumbar_extension	lumbar_bending	lumbar_rotation	arm_flex_r	arm_add_r	arm_rot_r	elbow_flex_r	pro_sup_r	wrist_flex_r	wrist_dev_r	arm_flex_l	arm_add_l	arm_rot_l	elbow_flex_l	pro_sup_l	wrist_flex_l	wrist_dev_l
      0.98000000	      3.14225431	     -9.92187722	     83.77615822	      0.19716012	      0.88555544	     -0.82106512	    -14.26156712	      5.80064144	      2.31506262	      5.50852252	      0.09614185	      7.05618379	      0.00000000	      0.00000000	     39.58467684	     -5.06509058	     -7.68096574	      5.55381475	      0.09693235	      1.84372878	      0.00000000	      0.00000000	      1.65832842	      3.05637493	      8.51237993	      0.00000000	      0.00000000	      0.00000000	      0.00000000	      0.00000000	      0.00000000	      0.00000000	      0.00000000	      0.00000000	      0.00000000	      0.00000000	      0.00000000	      0.00000000	      0.00000000
      0.99000000	      2.69998883	     -9.80784096	     83.75802530	      0.19658520	      0.88451325	     -0.84142621	    -14.10159882	      5.01100490	      1.63062626	      8.08782826	      0.14115923	      5.41118140	      0.00000000	      0.00000000	     39.60032210	     -4.53667542	     -7.84319006	      7.45297444	      0.13007894	      0.63277588	      0.00000000	      0.00000000	      1.74663266	      2.54160130	      8.44464651	      0.00000000	      0.00000000	      0.00000000	      0.00000000	      0.00000000	      0.00000000	      0.00000000	      0.00000000	      0.00000000	      0.00000000	      0.00000000	      0.00000000	      0.00000000	      0.00000000
      1.00000000	      2.30182180	     -9.62788645	     83.76903150	      0.19595092	      0.88406948	     -0.86190545	    -13.65252288	      4.23123537	      0.84676805	     11.22127046	      0.19584812	      3.35835406	      0.00000000	      0.00000000	     39.49141795	     -4.06187071	     -7.92411012	      9.50917026	      0.16596633	     -0.63958854	      0.00000000	      0.00000000	      1.76831586	      2.07469261	      8.30621301	      0.00000000	      0.00000000	      0.00000000	      0.00000000	      0.00000000	      0.00000000	      0.00000000	      0.00000000	      0.00000000	      0.00000000	      0.00000000	      0.00000000	      0.00000000	      0.00000000
      1.01000000	      1.93152014	     -9.37637030	     83.79824323	      0.19526396	      0.88422776	     -0.88245423	    -12.93578718	      3.43752563	      0.06201991	     14.85919493	      0.25934188	      0.88523739	      0.00000000	      0.00000000	     39.23534163	     -3.61920102	     -7.93767874	     11.63093446	      0.20299810	     -1.90842160	      0.00000000	      0.00000000	      1.71096160	      1.63376742	      8.12205759	      0.00000000	      0.00000000	      0.00000000	      0.00000000	      0.00000000	      0.00000000	      0.00000000	      0.00000000	      0.00000000	      0.00000000	      0.00000000	      0.00000000	      0.00000000	      0.00000000
      1.02000000	      1.63915856	     -8.93560971	     83.85760681	      0.19453844	      0.88515371	     -0.90303828	    -12.15744031	      2.67901449	     -0.64646696	     18.81935644	      0.32845973	     -2.11265051	      0.00000000	      0.00000000	     38.69498185	     -3.24364373	     -7.96247398	     13.74556224	      0.23990532	     -3.08868942	      0.00000000	      0.00000000	      1.40917445	      1.26198086	      7.92988065	      0.00000000	      0.00000000	      0.00000000	      0.00000000	      0.00000000	      0.00000000	      0.00000000	      0.00000000	      0.00000000	      0.00000000	      0.00000000	      0.00000000	      0.00000000	      0.00000000
      1.03000000	      1.17940696	     -8.70578840	     83.88866853	      0.19370992	      0.88616626	     -0.92339507	    -10.60027451	      1.72672884	     -1.26509783	     23.60893516	      0.41205365	     -4.90115014	      0.00000000	      0.00000000	     38.27198939	     -2.71887712	     -7.92014419	     15.70535707	      0.27411019	     -4.03136628	      0.00000000	      0.00000000	      1.38327591	      0.73617351	      7.64304748	      0.00000000	      0.00000000	      0.00000000	      0.00000000	      0.00000000	      0.00000000	      0.00000000	      0.00000000	      0.00000000	      0.00000000	      0.00000000	      0.00000000	      0.00000000	      0.00000000
      1.04000000	      0.80795679	     -8.44739945	     83.88871936	      0.19294230	      0.88759344	     -0.94341018	     -8.76596764	      0.86814241	     -1.58193956	     28.73580248	      0.50153437	     -7.59638588	      0.00000000	      0.00000000	     37.71305582	     -2.29557118	     -7.87464617	     17.50225035	      0.30547190	     -4.76957405	      0.00000000	      0.00000000	      1.26114856	      0.32260808	      7.40911809	      0.00000000	      0.00000000	      0.00000000	      0.00000000	      0.00000000	      0.00000000	      0.00000000	      0.00000000	      0.00000000	      0.00000000	      0.00000000	      0.00000000	      0.00000000	      0.00000000
      1.05000000	      0.36801082	     -8.05977073	     83.89997552	      0.19210889	      0.88956510	     -0.96326272	     -6.89139350	     -0.04372340	     -1.72459047	     33.88467136	      0.59139908	    -10.32090718	      0.00000000	      0.00000000	     36.89981753	     -1.78293238	     -7.95860956	     19.11857488	      0.33368208	     -5.09915606	     -0.00000000	      0.00000000	      0.96881349	     -0.18705209	      7.15629102	      0.00000000	      0.00000000	     -0.00000000	      0.00000000	      0.00000000	      0.00000000	     -0.00000000	     -0.00000000	      0.00000000	      0.00000000	      0.00000000	      0.00000000	     -0.00000000	      0.00000000
      1.06000000	     -0.09242521	     -8.02685566	     83.84970858	      0.19130193	      0.89131813	     -0.98243171	     -4.25448072	     -0.85753814	     -1.48813327	     39.36890064	      0.68711694	    -12.00155409	      0.00000000	      0.00000000	     36.32122582	     -1.26206048	     -7.94821209	     20.39591647	      0.35597590	     -5.29213463	      0.00000000	      0.00000000	      1.03659181	     -0.64804734	      6.88810771	      0.00000000	      0.00000000	      0.00000000	      0.00000000	      0.00000000	      0.00000000	      0.00000000	      0.00000000	      0.00000000	      0.00000000	      0.00000000	      0.00000000	      0.00000000	      0.00000000
      1.07000000	     -0.58142130	     -7.79374462	     83.80612924	      0.19048504	      0.89368451	     -1.00145376	     -1.80602035	     -1.66828276	     -1.19327979	     44.47902308	      0.77630540	    -13.51659458	      0.00000000	      0.00000000	     35.40257725	     -0.68637614	     -8.10572760	     21.47069854	      0.37473438	     -4.99720601	      0.00000000	      0.00000000	      0.84907655	     -1.16479905	      6.60944863	      0.00000000	      0.00000000	      0.00000000	      0.00000000	      0.00000000	      0.00000000	      0.00000000	      0.00000000	      0.00000000	      0.00000000	      0.00000000	      0.00000000	      0.00000000	      0.00000000
      1.08000000	     -1.00266637	     -7.84169371	     83.76534664	      0.18971714	      0.89594460	     -1.01989150	      1.10191428	     -2.25031283	     -0.69892554	     49.40385276	      0.86225989	    -14.11157979	      0.00000000	      0.00000000	     34.65510954	     -0.15471741	     -8.13948091	     22.25293851	      0.38838705	     -4.70703640	      0.00000000	      0.00000000	      0.92520805	     -1.57128486	      6.32919580	      0.00000000	      0.00000000	      0.00000000	      0.00000000	      0.00000000	      0.00000000	      0.00000000	      0.00000000	      0.00000000	      0.00000000	      0.00000000	      0.00000000	      0.00000000	      0.00000000
      1.09000000	     -1.41694104	     -7.62506015	     83.74191706	      0.18888243	      0.89887192	     -1.03823626	      3.68476827	     -2.82967365	     -0.27362342	     53.74569181	      0.93803928	    -14.32957445	      0.00000000	      0.00000000	     33.47360499	      0.43730788	     -8.24145932	     22.78844014	      0.39773331	     -3.94421831	      0.00000000	      0.00000000	      0.66693012	     -1.97849794	      6.05464216	      0.00000000	      0.00000000	      0.00000000	      0.00000000	      0.00000000	      0.00000000	      0.00000000	      0.00000000	      0.00000000	      0.00000000	      0.00000000	      0.00000000	      0.00000000	      0.00000000
      1.10000000	     -1.76285720	     -7.75090928	     83.70731025	      0.18817430	      0.90159331	     -1.05609585	      6.72351241	     -3.22614766	      0.16361759	     57.68544649	      1.00680097	    -13.83522833	      0.00000000	      0.00000000	     32.48541188	      0.95052216	     -8.31591026	     22.95289534	      0.40060360	     -3.40900127	      0.00000000	      0.00000000	      0.78116605	     -2.28611556	      5.70851410	      0.00000000	      0.00000000	      0.00000000	      0.00000000	      0.00000000	      0.00000000	      0.00000000	      0.00000000	      0.00000000	      0.00000000	      0.00000000	      0.00000000	      0.00000000	      0.00000000
      1.11000000	     -2.02982183	     -7.72228172	     83.70058157	      0.18743463	      0.90476351	     -1.07380726	      9.52745222	     -3.53651276	      0.50304678	     60.94860014	      1.06375375	    -12.95341536	      0.00000000	      0.00000000	     31.19902442	      1.44918698	     -8.34777125	     22.88937362	      0.39949493	     -2.62371094	      0.00000000	      0.00000000	      0.67501440	     -2.50118075	      5.37213885	      0.00000000	      0.00000000	      0.00000000	      0.00000000	      0.00000000	      0.00000000	      0.00000000	      0.00000000	      0.00000000	      0.00000000	      0.00000000	      0.00000000	      0.00000000	      0.00000000
